<svg width="16" height="16" viewBox="0 0 16 16" fill="none" xmlns="http://www.w3.org/2000/svg">
<path fill-rule="evenodd" clip-rule="evenodd" d="M10.0002 7.33301H8.66683V5.99967C8.66683 5.63301 8.36683 5.33301 8.00016 5.33301C7.6335 5.33301 7.3335 5.63301 7.3335 5.99967V7.33301H6.00016C5.6335 7.33301 5.3335 7.63301 5.3335 7.99967C5.3335 8.36634 5.6335 8.66634 6.00016 8.66634H7.3335V9.99967C7.3335 10.3663 7.6335 10.6663 8.00016 10.6663C8.36683 10.6663 8.66683 10.3663 8.66683 9.99967V8.66634H10.0002C10.3668 8.66634 10.6668 8.36634 10.6668 7.99967C10.6668 7.63301 10.3668 7.33301 10.0002 7.33301ZM8.00016 13.3327C5.05949 13.3327 2.66682 10.94 2.66682 7.99935C2.66682 5.05868 5.05949 2.66602 8.00016 2.66602C10.9408 2.66602 13.3335 5.05868 13.3335 7.99935C13.3335 10.94 10.9408 13.3327 8.00016 13.3327ZM8.00016 1.33301C4.32416 1.33301 1.3335 4.32367 1.3335 7.99967C1.3335 11.6757 4.32416 14.6663 8.00016 14.6663C11.6762 14.6663 14.6668 11.6757 14.6668 7.99967C14.6668 4.32367 11.6762 1.33301 8.00016 1.33301Z" fill="#25C2D9"/>
<mask id="mask0_322_4666" style="mask-type:luminance" maskUnits="userSpaceOnUse" x="1" y="1" width="14" height="14">
<path fill-rule="evenodd" clip-rule="evenodd" d="M10.0002 7.33301H8.66683V5.99967C8.66683 5.63301 8.36683 5.33301 8.00016 5.33301C7.6335 5.33301 7.3335 5.63301 7.3335 5.99967V7.33301H6.00016C5.6335 7.33301 5.3335 7.63301 5.3335 7.99967C5.3335 8.36634 5.6335 8.66634 6.00016 8.66634H7.3335V9.99967C7.3335 10.3663 7.6335 10.6663 8.00016 10.6663C8.36683 10.6663 8.66683 10.3663 8.66683 9.99967V8.66634H10.0002C10.3668 8.66634 10.6668 8.36634 10.6668 7.99967C10.6668 7.63301 10.3668 7.33301 10.0002 7.33301ZM8.00016 13.3327C5.05949 13.3327 2.66682 10.94 2.66682 7.99935C2.66682 5.05868 5.05949 2.66602 8.00016 2.66602C10.9408 2.66602 13.3335 5.05868 13.3335 7.99935C13.3335 10.94 10.9408 13.3327 8.00016 13.3327ZM8.00016 1.33301C4.32416 1.33301 1.3335 4.32367 1.3335 7.99967C1.3335 11.6757 4.32416 14.6663 8.00016 14.6663C11.6762 14.6663 14.6668 11.6757 14.6668 7.99967C14.6668 4.32367 11.6762 1.33301 8.00016 1.33301Z" fill="white"/>
</mask>
<g mask="url(#mask0_322_4666)">
</g>
</svg>
