<svg width="16" height="16" viewBox="0 0 16 16" fill="none" xmlns="http://www.w3.org/2000/svg">
<g opacity="0.6" clip-path="url(#clip0_515_2325)">
<path d="M0.727852 16C0.632263 16.0003 0.537555 15.9817 0.449186 15.9453C0.360818 15.9088 0.280537 15.8553 0.212973 15.7876C0.0776063 15.6505 0.00170898 15.4655 0.00170898 15.2728C0.00170898 15.08 0.0776063 14.8951 0.212973 14.7579L14.7576 0.21327C14.8941 0.0767155 15.0794 0 15.2725 0C15.4656 0 15.6508 0.0767155 15.7873 0.21327C15.9239 0.349825 16.0006 0.535032 16.0006 0.728149C16.0006 0.921267 15.9239 1.10647 15.7873 1.24303L1.24273 15.7876C1.17517 15.8553 1.09489 15.9088 1.00652 15.9453C0.918149 15.9817 0.823441 16.0003 0.727852 16Z" fill="white"/>
<path d="M15.2728 16C15.1772 16.0003 15.0825 15.9817 14.9941 15.9453C14.9057 15.9088 14.8255 15.8553 14.7579 15.7876L0.21327 1.24303C0.0767155 1.10647 -1.43884e-09 0.921267 0 0.728149C1.43884e-09 0.535032 0.0767155 0.349825 0.21327 0.21327C0.349825 0.0767155 0.535032 1.43884e-09 0.728149 0C0.921267 -1.43884e-09 1.10647 0.0767155 1.24303 0.21327L15.7876 14.7579C15.923 14.8951 15.9989 15.08 15.9989 15.2728C15.9989 15.4655 15.923 15.6505 15.7876 15.7876C15.7201 15.8553 15.6398 15.9088 15.5514 15.9453C15.4631 15.9817 15.3684 16.0003 15.2728 16Z" fill="white"/>
</g>
<defs>
<clipPath id="clip0_515_2325">
<rect width="16" height="16" fill="white"/>
</clipPath>
</defs>
</svg>
