<svg width="20" height="20" viewBox="0 0 20 20" fill="none" xmlns="http://www.w3.org/2000/svg">
<path d="M4.21756 4.12942C4.74558 3.7458 5.38215 3.54711 6.25 3.44421V4.16699C6.25 4.85735 6.80964 5.41699 7.5 5.41699C8.19036 5.41699 8.75 4.85735 8.75 4.16699V3.336C9.13675 3.33366 9.55234 3.33366 10 3.33366C10.4477 3.33366 10.8633 3.33366 11.25 3.336V4.16699C11.25 4.85735 11.8096 5.41699 12.5 5.41699C13.1904 5.41699 13.75 4.85735 13.75 4.16699V3.44421C14.6178 3.54711 15.2544 3.7458 15.7824 4.12942C16.1362 4.38642 16.4472 4.69749 16.7042 5.05122C17.1745 5.69852 17.3669 6.50897 17.4456 7.70866H2.55445C2.63312 6.50897 2.82547 5.69852 3.29576 5.05122C3.55276 4.69749 3.86383 4.38642 4.21756 4.12942Z" fill="white" fill-opacity="0.6"/>
<path fill-rule="evenodd" clip-rule="evenodd" d="M2.50892 8.95847C2.5 9.51349 2.5 10.1345 2.5 10.8337C2.5 13.9584 2.5 15.5208 3.29576 16.6161C3.55276 16.9698 3.86383 17.2809 4.21756 17.5379C5.31283 18.3337 6.87522 18.3337 10 18.3337C10.6991 18.3337 11.32 18.3337 11.875 18.3247L11.875 18.2663C11.8749 17.5563 11.8749 17.1238 11.934 16.7507C12.2587 14.7004 13.8668 13.0924 15.9171 12.7676C16.2901 12.7086 16.7226 12.7086 17.4326 12.7087L17.4911 12.7087C17.5 12.1537 17.5 11.5328 17.5 10.8337C17.5 10.1345 17.5 9.51349 17.4911 8.95847L17.4758 8.95866H2.52401L2.50892 8.95847ZM7.5 11.042C7.15482 11.042 6.875 11.3218 6.875 11.667C6.875 12.0122 7.15482 12.292 7.5 12.292H12.5C12.8452 12.292 13.125 12.0122 13.125 11.667C13.125 11.3218 12.8452 11.042 12.5 11.042H7.5Z" fill="white" fill-opacity="0.6"/>
<path d="M15.7824 17.5379C15.1351 18.0082 14.3247 18.2005 13.125 18.2792C13.1251 17.5206 13.1279 17.2033 13.1686 16.9463C13.4086 15.4308 14.5972 14.2423 16.1126 14.0023C16.3696 13.9616 16.6869 13.9588 17.4456 13.9587C17.3669 15.1583 17.1745 15.9688 16.7042 16.6161C16.4472 16.9698 16.1362 17.2809 15.7824 17.5379Z" fill="white" fill-opacity="0.6"/>
<path d="M8.125 1.66699C8.125 1.32181 7.84518 1.04199 7.5 1.04199C7.15482 1.04199 6.875 1.32181 6.875 1.66699V4.16699C6.875 4.51217 7.15482 4.79199 7.5 4.79199C7.84518 4.79199 8.125 4.51217 8.125 4.16699V1.66699Z" fill="white" fill-opacity="0.6"/>
<path d="M13.125 1.66699C13.125 1.32181 12.8452 1.04199 12.5 1.04199C12.1548 1.04199 11.875 1.32181 11.875 1.66699V4.16699C11.875 4.51217 12.1548 4.79199 12.5 4.79199C12.8452 4.79199 13.125 4.51217 13.125 4.16699V1.66699Z" fill="white" fill-opacity="0.6"/>
</svg>
