<svg width="16" height="16" viewBox="0 0 16 16" fill="none" xmlns="http://www.w3.org/2000/svg">
<path fill-rule="evenodd" clip-rule="evenodd" d="M10.6791 7.11895L8.88243 5.32229L10.1811 4.02295L11.9771 5.81895L10.6791 7.11895ZM6.0531 11.7496L4.06843 11.9303L4.24443 9.95962L7.9891 6.21495L9.78643 8.01229L6.0531 11.7496ZM12.9358 4.89162L12.9351 4.89095L11.1098 3.06562C10.6158 2.57295 9.7671 2.54962 9.2991 3.01962L3.30177 9.01695C3.08443 9.23362 2.94977 9.52162 2.92177 9.82629L2.6691 12.6063C2.65177 12.803 2.72177 12.9976 2.86177 13.1376C2.98777 13.2636 3.15777 13.333 3.3331 13.333C3.35377 13.333 3.37377 13.3323 3.39377 13.3303L6.17377 13.0776C6.4791 13.0496 6.76643 12.9156 6.9831 12.699L12.9811 6.70095C13.4664 6.21429 13.4458 5.40229 12.9358 4.89162Z" fill="#25C2D9"/>
<mask id="mask0_322_4698" style="mask-type:luminance" maskUnits="userSpaceOnUse" x="2" y="2" width="12" height="12">
<path fill-rule="evenodd" clip-rule="evenodd" d="M10.6791 7.11895L8.88243 5.32229L10.1811 4.02295L11.9771 5.81895L10.6791 7.11895ZM6.0531 11.7496L4.06843 11.9303L4.24443 9.95962L7.9891 6.21495L9.78643 8.01229L6.0531 11.7496ZM12.9358 4.89162L12.9351 4.89095L11.1098 3.06562C10.6158 2.57295 9.7671 2.54962 9.2991 3.01962L3.30177 9.01695C3.08443 9.23362 2.94977 9.52162 2.92177 9.82629L2.6691 12.6063C2.65177 12.803 2.72177 12.9976 2.86177 13.1376C2.98777 13.2636 3.15777 13.333 3.3331 13.333C3.35377 13.333 3.37377 13.3323 3.39377 13.3303L6.17377 13.0776C6.4791 13.0496 6.76643 12.9156 6.9831 12.699L12.9811 6.70095C13.4664 6.21429 13.4458 5.40229 12.9358 4.89162Z" fill="white"/>
</mask>
<g mask="url(#mask0_322_4698)">
</g>
</svg>
