<svg width="20" height="20" viewBox="0 0 20 20" fill="none" xmlns="http://www.w3.org/2000/svg">
<g opacity="0.4">
<path fill-rule="evenodd" clip-rule="evenodd" d="M14.1666 3.3335H15.8333C16.2916 3.3335 16.6666 3.7085 16.6666 4.16683V15.8335C16.6666 16.2918 16.2916 16.6668 15.8333 16.6668H14.1666C13.7083 16.6668 13.3333 16.2918 13.3333 15.8335C13.3333 15.3752 13.7083 15.0002 14.1666 15.0002H14.9999V5.00016H14.1666C13.7083 5.00016 13.3333 4.62516 13.3333 4.16683C13.3333 3.7085 13.7083 3.3335 14.1666 3.3335ZM8.66642 6.0005C9.03642 5.72466 9.55726 5.79966 9.83309 6.16716L12.3331 9.5005C12.5498 9.78883 12.5564 10.1838 12.3481 10.4797L10.0031 13.813C9.84059 14.0438 9.58309 14.1672 9.32059 14.1672C9.15559 14.1672 8.98809 14.118 8.84226 14.0155C8.46559 13.7505 8.37476 13.2305 8.63976 12.8538L10.0714 10.8188C10.0602 10.82 10.0496 10.8231 10.0392 10.8262C10.0263 10.83 10.0135 10.8338 9.99976 10.8338H3.33309C2.87309 10.8338 2.49976 10.4605 2.49976 10.0005C2.49976 9.53966 2.87309 9.16716 3.33309 9.16716H9.99976H10.0006L8.49976 7.16633C8.22392 6.79883 8.29809 6.27633 8.66642 6.0005Z" fill="white"/>
<mask id="mask0_354_3988" style="mask-type:luminance" maskUnits="userSpaceOnUse" x="2" y="3" width="15" height="14">
<path fill-rule="evenodd" clip-rule="evenodd" d="M14.1666 3.3335H15.8333C16.2916 3.3335 16.6666 3.7085 16.6666 4.16683V15.8335C16.6666 16.2918 16.2916 16.6668 15.8333 16.6668H14.1666C13.7083 16.6668 13.3333 16.2918 13.3333 15.8335C13.3333 15.3752 13.7083 15.0002 14.1666 15.0002H14.9999V5.00016H14.1666C13.7083 5.00016 13.3333 4.62516 13.3333 4.16683C13.3333 3.7085 13.7083 3.3335 14.1666 3.3335ZM8.66642 6.0005C9.03642 5.72466 9.55726 5.79966 9.83309 6.16716L12.3331 9.5005C12.5498 9.78883 12.5564 10.1838 12.3481 10.4797L10.0031 13.813C9.84059 14.0438 9.58309 14.1672 9.32059 14.1672C9.15559 14.1672 8.98809 14.118 8.84226 14.0155C8.46559 13.7505 8.37476 13.2305 8.63976 12.8538L10.0714 10.8188C10.0602 10.82 10.0496 10.8231 10.0392 10.8262C10.0263 10.83 10.0135 10.8338 9.99976 10.8338H3.33309C2.87309 10.8338 2.49976 10.4605 2.49976 10.0005C2.49976 9.53966 2.87309 9.16716 3.33309 9.16716H9.99976H10.0006L8.49976 7.16633C8.22392 6.79883 8.29809 6.27633 8.66642 6.0005Z" fill="white"/>
</mask>
<g mask="url(#mask0_354_3988)">
</g>
</g>
</svg>
