<svg width="21" height="20" viewBox="0 0 21 20" fill="none" xmlns="http://www.w3.org/2000/svg">
<g opacity="0.6">
<path fill-rule="evenodd" clip-rule="evenodd" d="M13.4098 3.23167L17.434 7.25583C17.9023 7.72417 18.1665 8.36083 18.1665 9.02417V15C18.1665 16.3808 17.0473 17.5 15.6665 17.5H13.9998V14.1667C13.9998 13.2475 13.2515 12.5 12.3332 12.5H8.99984C8.08067 12.5 7.33317 13.2475 7.33317 14.1667V17.5H5.6665C4.28567 17.5 3.1665 16.3808 3.1665 15V5C3.1665 3.61917 4.28567 2.5 5.6665 2.5H7.33317V8.33333C7.33317 8.79333 7.70567 9.16667 8.1665 9.16667H13.1665C13.6273 9.16667 13.9998 8.79333 13.9998 8.33333C13.9998 7.87333 13.6273 7.5 13.1665 7.5H8.99984V2.5H11.6432C12.3057 2.5 12.9415 2.76333 13.4098 3.23167ZM8.99975 14.1667H12.3331L12.3339 17.5H8.99975V14.1667Z" fill="white"/>
<mask id="mask0_517_2353" style="mask-type:luminance" maskUnits="userSpaceOnUse" x="3" y="2" width="16" height="16">
<path fill-rule="evenodd" clip-rule="evenodd" d="M13.4098 3.23167L17.434 7.25583C17.9023 7.72417 18.1665 8.36083 18.1665 9.02417V15C18.1665 16.3808 17.0473 17.5 15.6665 17.5H13.9998V14.1667C13.9998 13.2475 13.2515 12.5 12.3332 12.5H8.99984C8.08067 12.5 7.33317 13.2475 7.33317 14.1667V17.5H5.6665C4.28567 17.5 3.1665 16.3808 3.1665 15V5C3.1665 3.61917 4.28567 2.5 5.6665 2.5H7.33317V8.33333C7.33317 8.79333 7.70567 9.16667 8.1665 9.16667H13.1665C13.6273 9.16667 13.9998 8.79333 13.9998 8.33333C13.9998 7.87333 13.6273 7.5 13.1665 7.5H8.99984V2.5H11.6432C12.3057 2.5 12.9415 2.76333 13.4098 3.23167ZM8.99975 14.1667H12.3331L12.3339 17.5H8.99975V14.1667Z" fill="white"/>
</mask>
<g mask="url(#mask0_517_2353)">
</g>
</g>
</svg>
