<svg width="20" height="20" viewBox="0 0 20 20" fill="none" xmlns="http://www.w3.org/2000/svg">
<g opacity="0.6">
<path d="M15.4165 6.45801C15.4165 4.73212 14.0174 3.33301 12.2915 3.33301C10.5656 3.33301 9.1665 4.73212 9.1665 6.45801C9.1665 8.1839 10.5656 9.58301 12.2915 9.58301C14.0174 9.58301 15.4165 8.1839 15.4165 6.45801Z" fill="white"/>
<path d="M9.50037 3.65124C8.77945 4.36817 8.33317 5.36097 8.33317 6.45801C8.33317 7.55505 8.77945 8.54785 9.50037 9.26477C9.08531 9.46857 8.61844 9.58301 8.12484 9.58301C6.39895 9.58301 4.99984 8.1839 4.99984 6.45801C4.99984 4.73212 6.39895 3.33301 8.12484 3.33301C8.61844 3.33301 9.08531 3.44745 9.50037 3.65124Z" fill="white"/>
<path d="M17.9165 13.958C17.9165 12.2321 16.5174 10.833 14.7915 10.833H9.7915C8.06561 10.833 6.6665 12.2321 6.6665 13.958C6.6665 15.6839 8.06561 17.083 9.7915 17.083H14.7915C16.5174 17.083 17.9165 15.6839 17.9165 13.958Z" fill="white"/>
<path d="M5.83317 13.958C5.83317 14.8121 6.10365 15.603 6.56363 16.2497H5.62484C3.89895 16.2497 2.49984 14.8506 2.49984 13.1247C2.49984 11.3988 3.89895 9.99967 5.62484 9.99967H9.7915C7.60538 9.99967 5.83317 11.7719 5.83317 13.958Z" fill="white"/>
</g>
</svg>
