<svg width="20" height="20" viewBox="0 0 20 20" fill="none" xmlns="http://www.w3.org/2000/svg">
<g opacity="0.6">
<path fill-rule="evenodd" clip-rule="evenodd" d="M5.40792 3.54199C2.61309 3.54199 0.466226 6.01735 0.861474 8.78409L1.05389 10.131L2.26745 14.3785C2.61925 15.6098 3.74467 16.4587 5.02525 16.4587C6.00118 16.4587 6.91014 15.9624 7.43788 15.1415L7.74985 14.6562C8.80278 13.0183 11.197 13.0183 12.25 14.6562L12.4408 14.9531C13.044 15.8914 14.083 16.4587 15.1986 16.4587C16.8301 16.4587 18.2133 15.259 18.4441 13.6438L19.1383 8.78409C19.5336 6.01735 17.3867 3.54199 14.5919 3.54199C13.9493 3.54199 13.3139 3.67684 12.7267 3.93782L12.2842 4.13448C11.4297 4.51423 11.0838 4.66449 10.7353 4.73847C10.2505 4.8414 9.74935 4.8414 9.26446 4.73847C8.91598 4.66449 8.57007 4.51423 7.71564 4.13448L7.27315 3.93782C6.68595 3.67684 6.05051 3.54199 5.40792 3.54199ZM5.83322 6.87533C6.1784 6.87533 6.45822 7.15515 6.45822 7.50033V8.54199H7.49989C7.84507 8.54199 8.12489 8.82182 8.12489 9.16699C8.12489 9.51217 7.84507 9.79199 7.49989 9.79199H6.45822V10.8337C6.45822 11.1788 6.1784 11.4587 5.83322 11.4587C5.48804 11.4587 5.20822 11.1788 5.20822 10.8337V9.79199H4.16655C3.82138 9.79199 3.54155 9.51217 3.54155 9.16699C3.54155 8.82182 3.82138 8.54199 4.16655 8.54199H5.20822V7.50033C5.20822 7.15515 5.48804 6.87533 5.83322 6.87533ZM14.1666 8.33366C14.6268 8.33366 14.9999 7.96056 14.9999 7.50033C14.9999 7.04009 14.6268 6.66699 14.1666 6.66699C13.7064 6.66699 13.3333 7.04009 13.3333 7.50033C13.3333 7.96056 13.7064 8.33366 14.1666 8.33366ZM12.4999 10.0003C12.9602 10.0003 13.3333 9.62723 13.3333 9.16699C13.3333 8.70676 12.9602 8.33366 12.4999 8.33366C12.0397 8.33366 11.6666 8.70676 11.6666 9.16699C11.6666 9.62723 12.0397 10.0003 12.4999 10.0003ZM16.6666 9.16699C16.6666 9.62723 16.2935 10.0003 15.8333 10.0003C15.373 10.0003 14.9999 9.62723 14.9999 9.16699C14.9999 8.70676 15.373 8.33366 15.8333 8.33366C16.2935 8.33366 16.6666 8.70676 16.6666 9.16699ZM14.1666 11.667C14.6268 11.667 14.9999 11.2939 14.9999 10.8337C14.9999 10.3734 14.6268 10.0003 14.1666 10.0003C13.7064 10.0003 13.3333 10.3734 13.3333 10.8337C13.3333 11.2939 13.7064 11.667 14.1666 11.667Z" fill="white"/>
</g>
</svg>
