<svg width="20" height="20" viewBox="0 0 20 20" fill="none" xmlns="http://www.w3.org/2000/svg">
<path fill-rule="evenodd" clip-rule="evenodd" d="M6.52966 3.56332C7.62197 0.20155 12.378 0.20155 13.4703 3.56332C13.7914 4.55172 14.7125 5.22092 15.7518 5.22092C19.2865 5.22092 20.7562 9.74414 17.8965 11.8218C17.0558 12.4327 16.7039 13.5155 17.0251 14.5039C18.1174 17.8656 14.2697 20.6612 11.41 18.5835C10.5692 17.9726 9.43072 17.9726 8.58994 18.5835C5.73024 20.6612 1.88256 17.8656 2.97486 14.5039C3.29601 13.5155 2.94419 12.4327 2.10341 11.8218C-0.756283 9.74414 0.713405 5.22092 4.24818 5.22092C5.28744 5.22092 6.20851 4.55172 6.52966 3.56332ZM12.2586 6.3715C12.1478 6.04457 11.793 5.86931 11.4661 5.98006C11.1392 6.0908 10.9639 6.44561 11.0746 6.77254C11.4339 7.83309 12.4528 8.52838 13.577 8.52838C13.9222 8.52838 14.202 8.24855 14.202 7.90338C14.202 7.5582 13.9222 7.27838 13.577 7.27838C12.9608 7.27838 12.4371 6.89869 12.2586 6.3715Z" fill="white" fill-opacity="0.6"/>
</svg>
