<svg width="44" height="44" viewBox="0 0 44 44" fill="none" xmlns="http://www.w3.org/2000/svg">
<g opacity="0.8">
<path fill-rule="evenodd" clip-rule="evenodd" d="M23.8333 18.3333H22V16.5C22 15.4917 21.175 14.6667 20.1667 14.6667C19.1583 14.6667 18.3333 15.4917 18.3333 16.5V18.3333H16.5C15.4917 18.3333 14.6667 19.1583 14.6667 20.1667C14.6667 21.175 15.4917 22 16.5 22H18.3333V23.8333C18.3333 24.8417 19.1583 25.6667 20.1667 25.6667C21.175 25.6667 22 24.8417 22 23.8333V22H23.8333C24.8417 22 25.6667 21.175 25.6667 20.1667C25.6667 19.1583 24.8417 18.3333 23.8333 18.3333ZM9.16667 20.1667C9.16667 14.1002 14.1002 9.16667 20.1667 9.16667C26.2332 9.16667 31.1667 14.1002 31.1667 20.1667C31.1667 26.2332 26.2332 31.1667 20.1667 31.1667C14.1002 31.1667 9.16667 26.2332 9.16667 20.1667ZM37.9628 35.3705L31.7387 29.1445C33.6692 26.6622 34.8333 23.551 34.8333 20.1667C34.8333 12.0798 28.2535 5.5 20.1667 5.5C12.0798 5.5 5.5 12.0798 5.5 20.1667C5.5 28.2535 12.0798 34.8333 20.1667 34.8333C23.551 34.8333 26.6622 33.6692 29.1445 31.7387L35.3705 37.9628C35.728 38.3203 36.1973 38.5 36.6667 38.5C37.136 38.5 37.6053 38.3203 37.9628 37.9628C38.6797 37.246 38.6797 36.0873 37.9628 35.3705Z" fill="white"/>
<mask id="mask0_322_5257" style="mask-type:luminance" maskUnits="userSpaceOnUse" x="5" y="5" width="34" height="34">
<path fill-rule="evenodd" clip-rule="evenodd" d="M23.8333 18.3333H22V16.5C22 15.4917 21.175 14.6667 20.1667 14.6667C19.1583 14.6667 18.3333 15.4917 18.3333 16.5V18.3333H16.5C15.4917 18.3333 14.6667 19.1583 14.6667 20.1667C14.6667 21.175 15.4917 22 16.5 22H18.3333V23.8333C18.3333 24.8417 19.1583 25.6667 20.1667 25.6667C21.175 25.6667 22 24.8417 22 23.8333V22H23.8333C24.8417 22 25.6667 21.175 25.6667 20.1667C25.6667 19.1583 24.8417 18.3333 23.8333 18.3333ZM9.16667 20.1667C9.16667 14.1002 14.1002 9.16667 20.1667 9.16667C26.2332 9.16667 31.1667 14.1002 31.1667 20.1667C31.1667 26.2332 26.2332 31.1667 20.1667 31.1667C14.1002 31.1667 9.16667 26.2332 9.16667 20.1667ZM37.9628 35.3705L31.7387 29.1445C33.6692 26.6622 34.8333 23.551 34.8333 20.1667C34.8333 12.0798 28.2535 5.5 20.1667 5.5C12.0798 5.5 5.5 12.0798 5.5 20.1667C5.5 28.2535 12.0798 34.8333 20.1667 34.8333C23.551 34.8333 26.6622 33.6692 29.1445 31.7387L35.3705 37.9628C35.728 38.3203 36.1973 38.5 36.6667 38.5C37.136 38.5 37.6053 38.3203 37.9628 37.9628C38.6797 37.246 38.6797 36.0873 37.9628 35.3705Z" fill="white"/>
</mask>
<g mask="url(#mask0_322_5257)">
</g>
</g>
</svg>
